<svg version="1.2" xmlns="http://www.w3.org/2000/svg" viewBox="0 0 463 463" width="463" height="463">
	<title>Без-названия_1_-svg</title>
	<style>
		.s0 { fill: #000000 } 
	</style>
	<g>
		<path fill-rule="evenodd" class="s0" d="m199.2 84.8l7.2 0.7c40.7 3.6 71.2 7.1 82.6 9.6 6.8 1.5 8 3.1 8 10.5v6.2l-6.2 0.6c-40.9 3.4-66.9 6.6-71.7 8.9-2.2 1-2.6 1.9-2.9 6.5-0.4 6.2-1.9 6 19.3 3.2 35.6-4.7 127.1-0.7 141.1 6.1 4.8 2.3 7.3 6.4 17.4 29.4 3.4 7.7 7.7 16.8 9.6 20.1 3.2 5.8 9.3 12.4 11.4 12.4 0.6 0 1.9 0.9 3 2 1.8 1.8 2 3.3 2 13.3v11.2l5.3 1.9c14.5 5.1 24.8 11.3 27.8 16.9 2.3 4.2 2.9 13.6 1.9 30.7-1.8 29.2-2.3 30.3-15.6 31.4-12.5 1-45.2 2.5-79.4 3.6-17.3 0.5-39.4 1.2-49.1 1.6l-17.6 0.6-4.8-6.7c-2.6-3.7-8.6-11.2-13.3-16.7l-8.5-10-13.6 0.4c-16.4 0.6-20.2 1.9-26.7 9.1-5.5 6.2-12.3 19.8-13.1 26.5-1 8.7 2.6 8.1 9.4-1.7 8.3-11.7 12.2-15.9 17.5-18.5 6.1-3 7.8-3.2 14.2-1 6.1 2.1 14.9 10.2 22.7 21l6 8.2 17.7 0.6c41.4 1.5 63.2 2.7 65.2 3.4 1.2 0.5 3.6 3.1 5.3 5.9 3.5 5.6 9.2 10.7 14.6 12.9 9.8 4.1 19.9-1.5 26.6-14.6 3.8-7.5 5.9-8.4 19.7-8.9 6.5-0.2 13.4 0 15.3 0.3 3.4 0.7 3.5 0.9 3.5 5.1 0 5.2-0.9 5.9-9.3 6.9-8.1 0.9-11 2.7-15.1 9.4-4.9 8.1-14.2 16.6-22.1 20.3-5.8 2.8-7.4 3.1-13.8 2.7-12-0.6-19.5-5-32.3-19-6.8-7.4-10.5-8.3-30.9-7.5-29.1 1.3-40.4 3.6-45.4 9.2-1.7 2-3.1 4.2-3.1 4.9 0 2.1-5.7 6.5-12.5 9.8-7.3 3.4-14.1 3.7-21.7 0.8-6.7-2.5-11.4-6.4-18.4-15.1-6.6-8.3-8.5-9.6-15.5-10.9-4.8-0.8-44.4-2.8-91-4.5l-15.5-0.5-3.4 7.6c-6 13.8-15.1 20.4-28 20.4-14.3 0-28.9-9.9-32.9-22.2-0.7-2-1.8-4.2-2.6-4.8-0.8-0.7-5.4-1.8-10.2-2.5-18.7-2.8-18.3-2.3-18.3-23.9 0-18.4 0.5-20 6-19.4 4.4 0.4 6 3.3 6 11.3 0.1 15.2 9.6 20.6 16.7 9.5 10.1-16 15-19.4 27.8-19.5 6.8 0 8.9 0.4 13.6 2.8 5.5 2.6 7.6 4.6 18.1 17 4.6 5.3 5 5.6 11.5 6.6 11.1 1.7 51.9 4.2 63.8 3.9 10.6-0.3 11-0.4 12.4-2.9 0.8-1.5 1.1-3.6 0.7-5.2-0.5-2.1-1.3-2.7-4.9-3.1-3.9-0.5-31.4-1.6-41.4-1.6h-4.3v-18h61.8l0.7-3.3c0.3-1.7 0.9-47.9 1.2-102.5zm51.1 58.9c-3.5 0.7-4 4.7-1.4 12.3 4.4 12.7 15.4 39.6 19.3 47.2l4 7.8h64.4c55.2 0 64.4-0.2 64.4-1.4 0-3.6-13-35.1-20.1-48.8-2.3-4.3-5.3-8.7-6.8-9.7-4.1-2.9-23.4-4.7-76.6-7.1-21.9-1-43-1.1-47.2-0.3zm-17.1 10.9c-2.8-1.7-8.6 10.3-13.4 27.8-2.3 8.5-3.1 14.1-3.5 23.9l-0.6 12.9 5.4-0.6c3-0.3 10.8-0.8 17.4-1.1 17-0.8 18.5-1.2 18.5-4.2 0-5.1-11.3-35-19.1-50.5-2.1-4.2-4.2-7.9-4.7-8.2zm204.8 91.4l-49.2 0.2c-60.4 0.2-70.6 0.6-77.1 3.6-6.8 3.1-8 6.2-7.5 21.5 0.3 11.1 0.5 12 2.7 13.8 1.5 1.2 3.9 1.9 6.7 1.9h4.4v-12.8c0-18.2-0.6-17.2 10.1-17.2h8.9v31.8l35.3-0.5c39.6-0.4 56.2-1.5 60.6-3.8 4.2-2.1 5.1-6.3 5.1-23.8zm-375 63.2c-5 3.4-9.1 9.8-9.7 15.1-0.7 6.3 0.2 9.1 4.3 13.7 4 4.4 12.3 7.7 16.6 6.7 6.7-1.7 11-8.6 10.9-17.7 0-7.4-2.8-13.1-8-16.5-5.6-3.8-9.9-4.2-14.1-1.3zm179 4.4c-5.7 5.4-8 9.7-8 15.3 0 6.1 2 10 8.4 16 5.4 5 6 5.3 9.7 4.8 11.3-1.5 18.9-13.8 14.9-24.3-1.5-3.9-6.8-10.2-11.3-13.5-5.5-4-7.9-3.7-13.7 1.7z"/>
		<path class="s0" d="m350.2 266.7l0.3 7.8h35.3 35.4l1.9-2.4c1.3-1.6 1.9-3.9 1.9-7.7v-5.4h-37.5-37.6z"/>
		<path class="s0" d="m90.9 105.3l-81.6 17.1-0.7 8.1c-0.3 4.4-0.6 37.8-0.6 74.2 0 50.7 0.3 66.4 1.2 66.9 0.7 0.4 8.4 1.1 17.3 1.5 29 1.4 151.6 4.2 152.2 3.5 1.8-1.7 2.8-130 1.4-165.6-0.8-19.7-1.6-23.1-5.4-22.9-1.2 0.1-38.9 7.8-83.8 17.2z"/>
	</g>
</svg>